<svg width="192" height="192" viewBox="0 0 192 192" fill="none" xmlns="http://www.w3.org/2000/svg">
<path d="M101.025 1.0875C99.45 0.375 97.7625 0 96 0C94.2375 0 92.55 0.375 90.975 1.0875L20.3625 31.05C12.1125 34.5375 5.96249 42.675 5.99999 52.5C6.18749 89.7 21.4875 157.763 86.1 188.7C92.3625 191.7 99.6375 191.7 105.9 188.7C170.512 157.763 185.812 89.7 186 52.5C186.037 42.675 179.887 34.5375 171.637 31.05L101.025 1.0875ZM96 25.05L108 30.15V48.0375C108 54.675 113.362 60.0375 120 60.0375H161.737C161.287 67.3875 160.162 75.5625 158.212 84.0375H119.962C113.325 84.0375 107.962 89.4 107.962 96.0375V160.088C104.212 162.525 100.2 164.775 95.9625 166.838C91.725 164.775 87.7125 162.525 83.9625 160.088L84 96C84 89.3625 78.6375 84 72 84H33.7875C31.8375 75.525 30.75 67.35 30.2625 60H72C78.6375 60 84 54.6375 84 48V30.1125L96 25.0125V25.05Z" fill="#191813"/>
</svg>
