<svg width="192" height="192" viewBox="0 0 192 192" fill="none" xmlns="http://www.w3.org/2000/svg">
<g clip-path="url(#clip0_2_66)">
<path d="M85.3875 4.3875C91.2375 -1.4625 100.725 -1.4625 106.612 4.3875L134.4 32.175C139.087 36.8625 139.087 44.475 134.4 49.1625L104.513 79.05C99.825 83.7375 92.2125 83.7375 87.525 79.05L57.6375 49.125C52.95 44.4375 52.95 36.825 57.6375 32.1375L85.425 4.35L85.3875 4.3875ZM49.125 57.6375L79.0125 87.525C83.7 92.2125 83.7 99.825 79.0125 104.513L49.125 134.362C44.4375 139.05 36.825 139.05 32.1375 134.362L4.3875 106.612C-1.4625 100.762 -1.4625 91.275 4.3875 85.3875L32.175 57.6C36.8625 52.9125 44.475 52.9125 49.1625 57.6L49.125 57.6375ZM57.6375 142.875L87.525 112.987C92.2125 108.3 99.825 108.3 104.513 112.987L134.362 142.875C139.05 147.562 139.05 155.175 134.362 159.862L106.575 187.65C100.725 193.5 91.2375 193.5 85.35 187.65L57.5625 159.862C52.875 155.175 52.875 147.562 57.5625 142.875H57.6375ZM142.875 134.362L112.987 104.475C108.3 99.7875 108.3 92.175 112.987 87.4875L142.875 57.6375C147.562 52.95 155.175 52.95 159.862 57.6375L187.65 85.425C193.5 91.275 193.5 100.762 187.65 106.65L159.862 134.438C155.175 139.125 147.562 139.125 142.875 134.438V134.362Z" fill="#191813"/>
</g>
<defs>
<clipPath id="clip0_2_66">
<rect width="192" height="192" fill="white"/>
</clipPath>
</defs>
</svg>
