<svg width="192" height="192" viewBox="0 0 192 192" fill="none" xmlns="http://www.w3.org/2000/svg">
<g clip-path="url(#clip0_2_75)">
<path d="M174 2.28753C177.562 -0.899975 183 -0.749975 186.375 2.62503L189.375 5.62503C192.75 9.00003 192.9 14.4375 189.712 18L157.538 53.9625C156.562 55.05 156 56.475 156 57.975V66C156 69.3 153.3 72 150 72H144.075C142.35 72 140.737 72.7125 139.612 73.9875L37.7625 187.838C35.3625 190.5 31.9875 192 28.425 192C25.125 192 21.9375 190.688 19.6125 188.325L3.6375 172.388C1.3125 170.025 0 166.875 0 163.575C0 160.013 1.5 156.638 4.1625 154.275L46.0125 116.85C47.2875 115.725 48 114.075 48 112.388V102.038C48 98.7375 50.7 96.0375 54 96.0375H66.975C68.4375 96.0375 69.8625 95.475 70.9875 94.5L174 2.28753ZM162 108C163.35 108 164.513 108.9 164.888 110.175L170.438 129.563L189.825 135.113C191.1 135.488 192 136.65 192 138C192 139.35 191.1 140.513 189.825 140.888L170.438 146.438L164.888 165.825C164.513 167.1 163.35 168 162 168C160.65 168 159.487 167.1 159.112 165.825L153.562 146.438L134.175 140.888C132.9 140.513 132 139.35 132 138C132 136.65 132.9 135.488 134.175 135.113L153.562 129.563L159.112 110.175C159.487 108.9 160.65 108 162 108ZM32.8875 26.175L38.4375 45.5625L57.825 51.1125C59.1 51.4875 60 52.65 60 54C60 55.35 59.1 56.5125 57.825 56.8875L38.4375 62.4375L32.8875 81.825C32.5125 83.1 31.35 84 30 84C28.65 84 27.4875 83.1 27.1125 81.825L21.5625 62.4375L2.175 56.8875C0.9 56.5125 0 55.35 0 54C0 52.65 0.9 51.4875 2.175 51.1125L21.5625 45.5625L27.1125 26.175C27.4875 24.9 28.65 24 30 24C31.35 24 32.5125 24.9 32.8875 26.175ZM78 2.52472e-05C79.3875 2.52472e-05 80.5875 0.937525 80.925 2.28753L83.475 12.525L93.7125 15.075C95.0625 15.4125 96 16.6125 96 18C96 19.3875 95.0625 20.5875 93.7125 20.925L83.475 23.475L80.925 33.7125C80.5875 35.0625 79.3875 36 78 36C76.6125 36 75.4125 35.0625 75.075 33.7125L72.525 23.475L62.2875 20.925C60.9375 20.5875 60 19.3875 60 18C60 16.6125 60.9375 15.4125 62.2875 15.075L72.525 12.525L75.075 2.28753C75.4125 0.937525 76.6125 2.52472e-05 78 2.52472e-05Z" fill="#191813"/>
</g>
<defs>
<clipPath id="clip0_2_75">
<rect width="192" height="192" fill="white"/>
</clipPath>
</defs>
</svg>
