<svg width="192" height="171" viewBox="0 0 192 171" fill="none" xmlns="http://www.w3.org/2000/svg">
<g clip-path="url(#clip0_2_69)">
<path d="M16 10.6667C24.8333 10.6667 32 17.8334 32 26.6667V53.3334H16H10.6667C4.76667 53.3334 0 48.5667 0 42.6667V26.6667C0 17.8334 7.16667 10.6667 16 10.6667ZM42.6667 26.6667C42.6667 20.6667 40.6667 15.1334 37.3333 10.6667H128C145.133 10.6667 159.133 24.1667 159.967 41.1C159.833 42.2667 159.3 43.4 158.433 44.2334L151.2 51.4667C150.167 52.5 150.167 54.2 151.2 55.2334L158.433 62.4667C159.433 63.4667 160 64.8334 160 66.2334V66.7V72.0334V72.5C160 73.9 159.433 75.2667 158.433 76.2667L151.2 83.5C150.167 84.5334 150.167 86.2334 151.2 87.2667L158.433 94.5C159.433 95.5 160 96.8667 160 98.2667V98.7334V106.733H104.9C94.1 106.733 85.3333 115.5 85.3333 126.3V128.067C85.3333 139.833 75.7667 149.4 64 149.4C52.2333 149.4 42.6667 139.833 42.6667 128.067V88.0667V87.6C42.6667 86.2 43.2333 84.8334 44.2333 83.8334L51.4667 76.6C52.5 75.5667 52.5 73.8667 51.4667 72.8334L44.2333 65.6C43.2333 64.6 42.6667 63.2334 42.6667 61.8334V61.3667V26.7V26.6667ZM192 122.667C192 143.3 175.3 160 154.667 160H122.667H64C81.6667 160 96 145.667 96 128V126.233C96 121.333 99.9667 117.333 104.9 117.333H114.667H115.133C116.533 117.333 117.9 117.9 118.9 118.9L126.133 126.133C127.167 127.167 128.867 127.167 129.9 126.133L137.133 118.9C138.133 117.9 139.5 117.333 140.9 117.333H141.367H186.7C189.633 117.333 192.033 119.733 192.033 122.667H192Z" fill="#191813"/>
</g>
<defs>
<clipPath id="clip0_2_69">
<rect width="192" height="170.667" fill="white"/>
</clipPath>
</defs>
</svg>
