<svg width="192" height="192" viewBox="0 0 192 192" fill="none" xmlns="http://www.w3.org/2000/svg">
<g clip-path="url(#clip0_2_72)">
<path d="M36 123.525L55.0125 104.512L87.4875 136.987L68.475 156L76.2375 163.762C78.5625 166.087 78.5625 169.912 76.2375 172.237L70.2375 178.237C68.475 180 65.8125 180.487 63.5625 179.475L40.3125 169.162L19.2375 190.237C16.9125 192.562 13.0875 192.562 10.7625 190.237L1.7625 181.237C-0.562501 178.912 -0.562501 175.087 1.7625 172.762L22.8375 151.687L12.525 128.437C11.5125 126.15 12 123.525 13.7625 121.762L19.7625 115.762C22.0875 113.437 25.9125 113.437 28.2375 115.762L36 123.525ZM181.688 42.825L136.987 87.525L104.512 55.05L149.175 10.3125C151.687 7.8 154.875 6.075 158.362 5.4L184.837 0.112499C186.787 -0.262501 188.85 0.337499 190.275 1.7625C191.7 3.1875 192.3 5.2125 191.925 7.2L186.6 33.6C185.887 37.0875 184.2 40.275 181.688 42.7875V42.825ZM1.7625 1.7625C3.1875 0.337499 5.2125 -0.262501 7.1625 0.112499L33.6 5.4C37.0875 6.1125 40.275 7.8 42.7875 10.3125L147.525 115.012L115.05 147.487L10.3125 42.825C7.8 40.3125 6.075 37.125 5.4 33.6375L0.112499 7.1625C-0.262501 5.2125 0.337499 3.1875 1.7625 1.7625ZM172.237 115.762L178.237 121.762C180 123.525 180.488 126.187 179.475 128.437L169.163 151.687L190.237 172.762C192.562 175.087 192.562 178.912 190.237 181.237L181.237 190.237C178.912 192.562 175.087 192.562 172.762 190.237L151.688 169.162L128.438 179.475C126.15 180.487 123.525 180 121.762 178.237L115.762 172.237C113.438 169.912 113.438 166.087 115.762 163.762L163.762 115.762C166.087 113.437 169.912 113.437 172.237 115.762Z" fill="#191813"/>
</g>
<defs>
<clipPath id="clip0_2_72">
<rect width="192" height="192" fill="white"/>
</clipPath>
</defs>
</svg>
